<svg xmlns="http://www.w3.org/2000/svg" xmlns:xlink="http://www.w3.org/1999/xlink" height="45px" id="Layer_1" viewBox="0 0 45 45" width="45px" xml:space="preserve"><g><path d="M33.979,36.765H11.021c-2.066,0-3.242,1.266-3.242,2.826s1.176,2.826,3.242,2.826h22.957   c2.067,0,3.243-1.266,3.243-2.826S36.046,36.765,33.979,36.765z" fill="#ffffff"></path><path d="M22.5,8.833c0.448,0,0.813-0.363,0.813-0.813V3.396c0-0.448-0.364-0.813-0.813-0.813   s-0.813,0.364-0.813,0.813v4.625C21.688,8.47,22.052,8.833,22.5,8.833z" fill="#ffffff"></path><path d="M13.846,10.558c0.224,0.389,0.721,0.521,1.109,0.298c0.389-0.225,0.521-0.722,0.297-1.11L12.939,5.74   c-0.225-0.389-0.721-0.522-1.109-0.298s-0.521,0.722-0.297,1.11L13.846,10.558z" fill="#ffffff"></path><path d="M4.316,14.363l4.006,2.313c0.389,0.225,0.885,0.092,1.109-0.297s0.091-0.886-0.297-1.11l-4.006-2.313   c-0.389-0.225-0.887-0.091-1.11,0.298S3.928,14.139,4.316,14.363z" fill="#ffffff"></path><path d="M6.598,23.11H1.973c-0.449,0.001-0.813,0.365-0.813,0.813s0.363,0.813,0.813,0.813h4.625   c0.448-0.001,0.812-0.363,0.813-0.813C7.41,23.475,7.046,23.111,6.598,23.11z" fill="#ffffff"></path><path d="M30.046,10.855c0.389,0.224,0.885,0.091,1.109-0.298l2.313-4.005c0.225-0.389,0.092-0.886-0.297-1.11   S32.284,5.352,32.06,5.74l-2.313,4.005C29.523,10.134,29.657,10.631,30.046,10.855z" fill="#ffffff"></path><path d="M36.679,16.676l4.005-2.313c0.389-0.225,0.522-0.721,0.298-1.109s-0.722-0.522-1.11-0.298l-4.005,2.313   c-0.389,0.225-0.521,0.722-0.297,1.11S36.29,16.9,36.679,16.676z" fill="#ffffff"></path><path d="M43.028,23.11h-4.625c-0.449,0.001-0.813,0.364-0.813,0.813s0.363,0.812,0.812,0.813h4.625   c0.448,0,0.813-0.364,0.813-0.813S43.476,23.111,43.028,23.11z" fill="#ffffff"></path><path d="M12.75,20.583v14.182h8.938V18.896c0-0.448,0.364-0.813,0.813-0.813s0.813,0.364,0.813,0.813v15.869h8.938   V20.583c0-4.142-3.358-7.5-7.5-7.5h-4.5C16.107,13.083,12.75,16.441,12.75,20.583z" fill="#ffffff"></path></g></svg>
