<svg xmlns="http://www.w3.org/2000/svg" xmlns:xlink="http://www.w3.org/1999/xlink" height="45px" id="Layer_1" viewBox="0 0 45 45" width="45px" xml:space="preserve"><g><polygon fill="#ffffff" points="22.066,6.884 22.066,4.933 5.149,1.493 5.149,6.884 5.149,12.275 22.066,8.836  "></polygon><path d="M35.463,8.038c-2.49-1.965-5.41-2.198-7.231-2.101V4.375c0-1.283-1.04-2.324-2.323-2.324   s-2.324,1.041-2.324,2.324v6.687c-2.912,0.564-5.112,3.125-5.112,6.202v23.269c0,1.643,1.214,2.975,2.712,2.975h9.449   c1.497,0,2.711-1.332,2.711-2.975V17.264c0-3.077-2.2-5.638-5.112-6.202V7.43c1.566-0.091,4.161,0.079,6.31,1.775   c2.536,2.002,3.822,5.6,3.822,10.693c0,0.41,0.333,0.743,0.743,0.743c0.411,0,0.744-0.333,0.744-0.743   C39.851,14.326,38.374,10.336,35.463,8.038z M28.966,24.825c0,0-0.051,1.991,0.817,3.268c0.868,1.276,2.553,4.187-2.451,6.229   c0,0,1.276-0.919,0.511-2.451s-0.664-2.145-0.612-2.451c0,0-0.971,0.971-0.563,2.043c0,0-1.685-1.43-1.021-3.421   c0,0-1.123,0.766-0.919,1.838s0.152,1.787-0.307,2.195c0,0-0.103-1.48-0.612-1.838c0,0,0,1.123-0.256,1.685   c-0.255,0.562-0.255,1.634,0.562,2.4c0,0-3.217-0.46-3.063-3.115c0.153-2.655,1.736-4.952,0.817-6.995c0,0,1.531,0.307,2.246,2.604   c0,0,1.979-2.885,0.396-5.183c0,0,2.443,0.949,2.826,3.37c0.203,1.293,0.047,2.63,0.557,3.345   C27.894,28.348,27.536,25.897,28.966,24.825z" fill="#ffffff"></path></g></svg>
