<svg xmlns="http://www.w3.org/2000/svg" xmlns:xlink="http://www.w3.org/1999/xlink" height="45px" id="Layer_1" viewBox="0 0 45 45" width="45px" xml:space="preserve"><g><path d="M38.287,27.55c0.306,6.427-7.499,13.772-7.499,13.772h9.029c3.672-3.979,2.602-13.772,2.602-13.772H38.287z   " fill="#ffffff"></path><path d="M44.365,15.643v-0.794c0-1.268-1.028-2.295-2.296-2.295h-3.098c-1.268,0-2.295,1.027-2.295,2.295v8.876   c0,1.268,1.027,2.295,2.295,2.295h3.098c1.268,0,2.296-1.027,2.296-2.295v-0.794H40.96v-0.918h3.405v-1.206H40.96v-0.918h3.405   v-1.205H40.96v-0.918h3.405v-1.205H40.96v-0.918H44.365z" fill="#ffffff"></path><path d="M11.277,11.27c-0.283-0.283-0.742-0.283-1.025,0c-4.42,4.421-4.42,11.613,0,16.033   c0.142,0.142,0.327,0.213,0.513,0.213s0.371-0.071,0.513-0.213c0.283-0.283,0.283-0.742,0-1.025   c-3.854-3.854-3.854-10.127,0-13.982C11.561,12.012,11.561,11.553,11.277,11.27z" fill="#ffffff"></path><path d="M6.778,7.935c0.283-0.283,0.283-0.743,0-1.025c-0.283-0.283-0.742-0.283-1.025,0   c-6.825,6.825-6.825,17.93,0,24.755c0.142,0.142,0.327,0.213,0.513,0.213s0.371-0.071,0.513-0.213c0.283-0.283,0.283-0.742,0-1.025   C0.519,24.379,0.519,14.193,6.778,7.935z" fill="#ffffff"></path><path d="M34.878,19.287v-5.662c-8.11-2.755-16.68-7.498-16.68-7.498V4.673c0-0.55-0.445-0.995-0.995-0.995   c-0.549,0-0.994,0.445-0.994,0.995v10.864c-1.444,0.654-2.448,2.085-2.448,3.75c0,1.664,1.004,3.094,2.448,3.749V33.9   c0,0.549,0.445,0.994,0.994,0.994c0.55,0,0.995-0.445,0.995-0.994v-1.454c0,0,8.569-4.743,16.68-7.498V19.287z" fill="#ffffff"></path></g></svg>
