<svg xmlns="http://www.w3.org/2000/svg" xmlns:xlink="http://www.w3.org/1999/xlink" height="45px" id="Layer_1" viewBox="0 0 45 45" width="45px" xml:space="preserve"><g><circle cx="5.886" cy="6.661" fill="#ffffff" r="2.422"></circle><circle cx="13.653" cy="6.661" fill="#ffffff" r="2.422"></circle><circle cx="21.418" cy="6.661" fill="#ffffff" r="2.422"></circle><circle cx="5.886" cy="14.23" fill="#ffffff" r="2.422"></circle><circle cx="13.653" cy="14.23" fill="#ffffff" r="2.422"></circle><circle cx="21.418" cy="14.23" fill="#ffffff" r="2.422"></circle><circle cx="5.886" cy="21.801" fill="#ffffff" r="2.422"></circle><circle cx="13.653" cy="21.801" fill="#ffffff" r="2.422"></circle><path d="M36.713,23.346c-0.516-0.894-1.659-1.199-2.553-0.684c-0.893,0.517-1.199,1.659-0.684,2.553l-0.407-0.705   c-0.517-0.894-1.659-1.2-2.553-0.684c-0.894,0.516-1.2,1.658-0.685,2.552l-0.406-0.705c-0.518-0.895-1.66-1.2-2.553-0.685   c-0.895,0.517-1.2,1.658-0.684,2.553l-4.166-7.214c-0.42-0.728-1.437-1.312-2.532-0.679c-1.097,0.633-1.099,1.806-0.679,2.533   L25.693,34.1c-1.85-0.393-4.266-0.813-5.24-0.583c-1.677,0.396-0.549,2.288,1.897,3.287c4.735,1.933,8.819,5.623,13.176,3.107   l3.205-1.851c2.683-1.549,3.602-4.98,2.053-7.663L36.713,23.346z" fill="#ffffff"></path></g></svg>
