<svg xmlns="http://www.w3.org/2000/svg" xmlns:xlink="http://www.w3.org/1999/xlink" id="Layer_1" viewBox="0 0 52 52" xml:space="preserve"><g><path fill="#ffffff" d="M26,33c-1.6500244,0-3,1.3399658-3,3c0,1.6500244,1.3499756,3,3,3c1.6599731,0,3-1.3499756,3-3   C29,34.3399658,27.6599731,33,26,33z"></path><path fill="#ffffff" d="M12,2v48h28V2H12z M26,11.960022c3.3099976,0,6,2.6900024,6,6s-2.6900024,6-6,6s-6-2.6900024-6-6   S22.6900024,11.960022,26,11.960022z M17.0015259,5.9968262h4v2h-4V5.9968262z M26,45c-4.960022,0-9-4.039978-9-9   c0-4.9700317,4.039978-9,9-9c4.9599609,0,9,4.0299683,9,9C35,40.960022,30.9599609,45,26,45z M35.0015259,7.9968262h-4v-2h4   V7.9968262z"></path></g></svg>
