<svg xmlns="http://www.w3.org/2000/svg" xmlns:xlink="http://www.w3.org/1999/xlink" height="45px" id="Layer_1" viewBox="0 0 45 45" width="45px" xml:space="preserve"><g><path d="M9.991,28.218c0,6.909,5.601,12.51,12.51,12.51c6.908,0,12.509-5.601,12.509-12.51V17.131H9.991V28.218z    M22.5,26.517c2.59,0,4.69,2.1,4.69,4.69c0,2.592-2.101,4.691-4.69,4.691c-2.591,0-4.691-2.1-4.691-4.691   C17.809,28.617,19.91,26.517,22.5,26.517z" fill="#ffffff"></path><path d="M22.5,34.193c0.287,0,0.56-0.054,0.822-0.129c-0.546-0.238-0.93-0.782-0.93-1.417   c0-0.854,0.693-1.546,1.547-1.546c0.635,0,1.178,0.384,1.416,0.93c0.076-0.263,0.129-0.535,0.129-0.823   c0-1.647-1.336-2.984-2.984-2.984s-2.984,1.337-2.984,2.984C19.516,32.856,20.852,34.193,22.5,34.193z" fill="#ffffff"></path><path d="M6.722,4.272v6.823c0,1.884,1.527,3.411,3.411,3.411h24.732c1.885,0,3.412-1.527,3.412-3.411V4.272H6.722z    M27.506,10.076h-3.289c-0.438,0-0.793-0.355-0.793-0.793c0-0.438,0.355-0.793,0.793-0.793h3.289c0.438,0,0.793,0.354,0.793,0.793   C28.299,9.72,27.944,10.076,27.506,10.076z M34.216,10.076h-3.29c-0.438,0-0.792-0.355-0.792-0.793   c0-0.438,0.354-0.793,0.792-0.793h3.29c0.437,0,0.793,0.354,0.793,0.793C35.009,9.72,34.653,10.076,34.216,10.076z" fill="#ffffff"></path></g></svg>
