<svg xmlns="http://www.w3.org/2000/svg" xmlns:xlink="http://www.w3.org/1999/xlink" height="512px" id="window" viewBox="0 0 512 512" width="512px" xml:space="preserve"><g><g id="XMLID_124_"><g><polygon fill="#ffffff" points="457.869,271.767 457.869,448.147 402.081,429.319 402.081,269.092    "></polygon><polygon fill="#ffffff" points="371.352,474.944 11.5,474.944 11.5,37.535 371.352,37.535 371.352,50.614 340.166,62.808      35.171,62.808 35.171,449.672 347.281,449.672 371.352,457.67    "></polygon><polygon fill="#ffffff" points="382.692,268.155 382.692,422.793 326.903,403.992 326.903,265.48    "></polygon><polygon fill="#ffffff" points="402.081,253.311 402.081,83.241 457.869,64.413 457.869,250.075    "></polygon><polygon fill="#ffffff" points="326.903,246.813 326.903,246.412 326.903,108.596 382.692,89.768 382.692,254.436      326.903,257.672    "></polygon><path d="M306.574,255.745V83.162l172.158-58.037l21.768,12.41v218.21v0.482v218.209l-21.768,12.438     l-172.158-58.037v-172.61V255.745z M317.246,414.369l150.276,50.655V46.949L317.246,97.63v158.143v0.455V414.369z" fill="#ffffff"></path></g></g></g></svg>
