<?xml version="1.0" encoding="utf-8"?>
<!-- Generator: Adobe Illustrator 19.0.0, SVG Export Plug-In . SVG Version: 6.00 Build 0)  -->
<svg version="1.1" id="Layer_1" xmlns="http://www.w3.org/2000/svg" xmlns:xlink="http://www.w3.org/1999/xlink" x="0px" y="0px"
	 viewBox="0 0 100 100" style="enable-background:new 0 0 100 100;" xml:space="preserve">
<style type="text/css">
	.st0{fill:url(#XMLID_10_);}
	.st1{fill:url(#XMLID_11_);}
	.st2{fill:url(#XMLID_12_);}
	.st3{fill:url(#XMLID_13_);}
	.st4{opacity:0.22;fill:url(#XMLID_14_);}
	.st5{opacity:8.000000e-002;fill:url(#XMLID_15_);}
	.st6{opacity:8.000000e-002;fill:url(#XMLID_16_);}
	.st7{opacity:8.000000e-002;fill:url(#XMLID_17_);}
</style>
<linearGradient id="XMLID_10_" gradientUnits="userSpaceOnUse" x1="-9.094947e-013" y1="50" x2="100" y2="50" gradientTransform="matrix(0.6917 -0.7222 0.7222 0.6917 -20.6942 51.5284)">
	<stop  offset="2.000000e-003" style="stop-color:#747172"/>
	<stop  offset="0.46" style="stop-color:#FFFFFF"/>
	<stop  offset="1" style="stop-color:#000000"/>
</linearGradient>
<circle id="XMLID_1_" class="st0" cx="50" cy="50" r="50"/>
<linearGradient id="XMLID_11_" gradientUnits="userSpaceOnUse" x1="0.5317" y1="50" x2="99.4683" y2="50" gradientTransform="matrix(0.2334 -0.9724 0.9724 0.2334 -10.2895 86.9483)">
	<stop  offset="2.000000e-003" style="stop-color:#747172"/>
	<stop  offset="0.46" style="stop-color:#FFFFFF"/>
	<stop  offset="1" style="stop-color:#000000"/>
</linearGradient>
<circle id="XMLID_2_" class="st1" cx="50" cy="50" r="49.5"/>
<linearGradient id="XMLID_12_" gradientUnits="userSpaceOnUse" x1="1.6559" y1="49.8657" x2="100.5926" y2="49.8657" gradientTransform="matrix(0.112 -0.9833 0.9936 0.1131 -5.3273 94.1376)">
	<stop  offset="2.000000e-003" style="stop-color:#747172"/>
	<stop  offset="0.46" style="stop-color:#FFFFFF"/>
	<stop  offset="1" style="stop-color:#000000"/>
</linearGradient>
<path id="XMLID_3_" class="st2" d="M44.4,98.2c27.1,3.1,51.6-16.2,54.7-43C102.2,28.2,82.6,4,55.5,0.9S3.9,17,0.8,43.9
	S17.3,95.1,44.4,98.2z"/>
<radialGradient id="XMLID_13_" cx="49.6698" cy="49.0856" r="48.3855" gradientUnits="userSpaceOnUse">
	<stop  offset="0" style="stop-color:#FF0303"/>
	<stop  offset="0.201" style="stop-color:#FB0303"/>
	<stop  offset="0.3928" style="stop-color:#F00303"/>
	<stop  offset="0.581" style="stop-color:#DC0303"/>
	<stop  offset="0.7668" style="stop-color:#C10303"/>
	<stop  offset="0.9494" style="stop-color:#9F0303"/>
	<stop  offset="1" style="stop-color:#940303"/>
</radialGradient>
<path id="XMLID_6_" class="st3" d="M55.1,1.2C28.5-1.8,4.4,17.1,1.4,43.6S17.6,93.9,44.2,97S94.9,81,97.9,54.6
	C100.9,28.1,81.8,4.2,55.1,1.2z"/>
<linearGradient id="XMLID_14_" gradientUnits="userSpaceOnUse" x1="28.1893" y1="27.606" x2="76.4315" y2="75.8482">
	<stop  offset="0" style="stop-color:#940303;stop-opacity:0"/>
	<stop  offset="1" style="stop-color:#FFFFFF"/>
</linearGradient>
<path id="XMLID_9_" class="st4" d="M77.3,9.5c8.6,9.9,13.3,23.1,11.7,37.1C85.9,73,61.9,92,35.2,89C27,88,19.5,85.1,13.1,80.7
	c7.7,8.8,18.6,14.8,31.1,16.3c26.7,3,50.7-15.9,53.7-42.4C100,36.3,91.5,19.3,77.3,9.5z"/>
<linearGradient id="XMLID_15_" gradientUnits="userSpaceOnUse" x1="33.1444" y1="43.5139" x2="57.1925" y2="67.562" gradientTransform="matrix(-0.975 -0.2223 0.2223 -0.975 64.5074 96.0141)">
	<stop  offset="0" style="stop-color:#940303;stop-opacity:0"/>
	<stop  offset="1" style="stop-color:#FFFFFF"/>
</linearGradient>
<path id="XMLID_4_" class="st5" d="M16,49.6c-3.1-5.7-3.9-12.7-1.6-19.3c4.4-12.5,18.2-19.1,30.8-14.7c3.9,1.4,7.2,3.6,9.8,6.5
	c-2.8-5.1-7.4-9.3-13.3-11.4C29.1,6.3,15.4,12.9,11,25.4C7.9,34,10.2,43.3,16,49.6z"/>
<linearGradient id="XMLID_16_" gradientUnits="userSpaceOnUse" x1="30.8865" y1="47.1058" x2="54.9346" y2="71.1539" gradientTransform="matrix(-0.975 -0.2223 0.2223 -0.975 64.5074 96.0141)">
	<stop  offset="0" style="stop-color:#940303;stop-opacity:0"/>
	<stop  offset="1" style="stop-color:#FFFFFF"/>
</linearGradient>
<path id="XMLID_7_" class="st6" d="M19,46.6c-3.1-5.7-3.9-12.7-1.6-19.3c4.4-12.5,18.2-19.1,30.8-14.7c3.9,1.4,7.2,3.6,9.8,6.5
	C55.3,14,50.7,9.8,44.8,7.7C32.1,3.3,18.4,9.9,14,22.4C10.9,31,13.2,40.3,19,46.6z"/>
<linearGradient id="XMLID_17_" gradientUnits="userSpaceOnUse" x1="31.1944" y1="43.9586" x2="55.2426" y2="68.0067" gradientTransform="matrix(-0.975 -0.2223 0.2223 -0.975 64.5074 96.0141)">
	<stop  offset="0" style="stop-color:#940303;stop-opacity:0"/>
	<stop  offset="1" style="stop-color:#FFFFFF"/>
</linearGradient>
<path id="XMLID_8_" class="st7" d="M18,49.6c-3.1-5.7-3.9-12.7-1.6-19.3c4.4-12.5,18.2-19.1,30.8-14.7c3.9,1.4,7.2,3.6,9.8,6.5
	c-2.8-5.1-7.4-9.3-13.3-11.4C31.1,6.3,17.4,12.9,13,25.4C9.9,34,12.2,43.3,18,49.6z"/>
</svg>
